# Blender v3.0.1 OBJ File: ''
# www.blender.org
mtllib counter.mtl
o Cabinets
v 76.000000 24.000000 42.000000
v 76.030380 24.000000 42.347301
v 76.120613 24.000000 42.684040
v 76.267952 24.000000 43.000000
v 76.467911 24.000000 43.285580
v 76.714417 24.000000 43.532089
v 77.000000 24.000000 43.732052
v 77.315964 24.000000 43.879379
v 77.652702 24.000000 43.969620
v 78.000000 24.000000 44.000000
v 92.000000 24.000000 44.000000
v 84.858940 24.000000 33.019058
v 84.511642 24.000000 32.988670
v 84.174896 24.000000 32.898449
v 83.858940 24.000000 32.751110
v 83.573357 24.000000 32.551151
v 83.326851 24.000000 32.304630
v 83.126877 24.000000 32.019058
v 82.979553 24.000000 31.703100
v 82.889320 24.000000 31.366360
v 82.858932 24.000000 31.019060
v 82.889320 24.000000 30.671761
v 82.979553 24.000000 30.335020
v 83.126877 24.000000 30.019060
v 92.347298 24.000000 43.969620
v 92.684036 24.000000 43.879379
v 93.000000 24.000000 43.732052
v 93.285583 24.000000 43.532089
v 93.532089 24.000000 43.285580
v 93.732063 24.000000 43.000000
v 93.879387 24.000000 42.684040
v 93.969612 24.000000 42.347301
v 94.000000 24.000000 42.000000
v 76.000000 24.000000 20.000000
v 83.326851 24.000000 29.733480
v 83.573357 24.000000 29.486971
v 83.858940 24.000000 29.287010
v 84.174896 24.000000 29.139669
v 84.511642 24.000000 29.049440
v 84.858940 24.000000 29.019060
v 94.000000 24.000000 20.000000
v 93.969612 24.000000 19.652700
v 93.879387 24.000000 19.315960
v 93.732063 24.000000 19.000000
v 93.532089 24.000000 18.714420
v 93.285583 24.000000 18.467911
v 93.000000 24.000000 18.267950
v 92.684036 24.000000 18.120621
v 92.347298 24.000000 18.030380
v 92.000000 24.000000 18.000000
v 78.000000 24.000000 18.000000
v 77.652702 24.000000 18.030380
v 77.315964 24.000000 18.120621
v 77.000000 24.000000 18.267950
v 76.714417 24.000000 18.467911
v 76.467911 24.000000 18.714420
v 76.267952 24.000000 19.000000
v 76.120613 24.000000 19.315960
v 76.030380 24.000000 19.652700
v 86.590988 24.000000 30.019060
v 86.738319 24.000000 30.335020
v 86.828552 24.000000 30.671761
v 86.858940 24.000000 31.019060
v 86.828552 24.000000 31.366360
v 86.738319 24.000000 31.703100
v 86.590988 24.000000 32.019058
v 86.391022 24.000000 32.304630
v 86.144508 24.000000 32.551151
v 85.858932 24.000000 32.751110
v 85.542969 24.000000 32.898449
v 85.206230 24.000000 32.988670
v 85.206230 24.000000 29.049440
v 85.542969 24.000000 29.139669
v 85.858932 24.000000 29.287010
v 86.144508 24.000000 29.486971
v 86.391022 24.000000 29.733480
v 84.858940 23.000000 33.019058
v 85.206230 23.000000 32.988670
v 85.542969 23.000000 32.898449
v 85.858932 23.000000 32.751110
v 86.144508 23.000000 32.551151
v 86.391022 23.000000 32.304630
v 86.590988 23.000000 32.019058
v 86.738319 23.000000 31.703100
v 86.828552 23.000000 31.366360
v 86.858940 23.000000 31.019060
v 84.511642 23.000000 32.988670
v 84.174896 23.000000 32.898449
v 83.858940 23.000000 32.751110
v 83.573357 23.000000 32.551151
v 83.326851 23.000000 32.304630
v 83.126877 23.000000 32.019058
v 82.979553 23.000000 31.703100
v 82.889320 23.000000 31.366360
v 82.858932 23.000000 31.019060
v 84.858940 23.000000 29.019060
v 84.511642 23.000000 29.049440
v 84.174896 23.000000 29.139669
v 83.858940 23.000000 29.287010
v 83.573357 23.000000 29.486971
v 83.326851 23.000000 29.733480
v 83.126877 23.000000 30.019060
v 82.979553 23.000000 30.335020
v 82.889320 23.000000 30.671761
v 85.206230 23.000000 29.049440
v 85.542969 23.000000 29.139669
v 85.858932 23.000000 29.287010
v 86.144508 23.000000 29.486971
v 86.391022 23.000000 29.733480
v 86.590988 23.000000 30.019060
v 86.738319 23.000000 30.335020
v 86.828552 23.000000 30.671761
v 74.000000 34.000000 46.000000
v 98.000000 34.000000 46.000000
v 92.000000 34.000000 44.000000
v 78.000000 34.000000 44.000000
v 77.652702 34.000000 43.969620
v 77.315964 34.000000 43.879379
v 77.000000 34.000000 43.732052
v 76.714417 34.000000 43.532089
v 76.467911 34.000000 43.285580
v 76.267952 34.000000 43.000000
v 76.120613 34.000000 42.684040
v 76.030380 34.000000 42.347301
v 76.000000 34.000000 42.000000
v 76.000000 34.000000 20.000000
v 74.000000 34.000000 0.000000
v 76.030380 34.000000 19.652700
v 76.120613 34.000000 19.315960
v 76.267952 34.000000 19.000000
v 76.467911 34.000000 18.714420
v 76.714417 34.000000 18.467911
v 77.000000 34.000000 18.267950
v 77.315964 34.000000 18.120621
v 77.652702 34.000000 18.030380
v 78.000000 34.000000 18.000000
v 74.000000 34.000000 -24.000000
v 72.000000 34.000000 0.000000
v 0.000000 34.000000 0.000000
v 72.000000 34.000000 -24.000000
v 0.000000 34.000000 -24.000000
v 98.000000 34.000000 -24.000000
v 92.000000 34.000000 18.000000
v 92.347298 34.000000 18.030380
v 92.684036 34.000000 18.120621
v 93.000000 34.000000 18.267950
v 93.285583 34.000000 18.467911
v 93.532089 34.000000 18.714420
v 93.732063 34.000000 19.000000
v 93.879387 34.000000 19.315960
v 93.969612 34.000000 19.652700
v 94.000000 34.000000 20.000000
v 94.000000 34.000000 42.000000
v 93.969612 34.000000 42.347301
v 93.879387 34.000000 42.684040
v 93.732063 34.000000 43.000000
v 93.532089 34.000000 43.285580
v 93.285583 34.000000 43.532089
v 93.000000 34.000000 43.732052
v 92.684036 34.000000 43.879379
v 92.347298 34.000000 43.969620
v 0.000000 0.000000 0.000000
v 0.000000 0.000000 -24.000000
v 72.000000 0.000000 -24.000000
v 74.000000 0.000000 -24.000000
v 98.000000 0.000000 -24.000000
v 72.000000 0.000000 0.000000
v 74.000000 0.000000 0.000000
v 98.000000 0.000000 46.000000
v 74.000000 0.000000 46.000000
vn 0.0000 1.0000 0.0000
vn -0.0872 0.0000 -0.9962
vn -0.2588 0.0000 -0.9659
vn -0.4226 0.0000 -0.9063
vn -0.5736 0.0000 -0.8192
vn -0.7071 0.0000 -0.7071
vn -0.8191 0.0000 -0.5736
vn -0.9063 0.0000 -0.4226
vn -0.9659 0.0000 -0.2588
vn -0.9962 0.0000 -0.0872
vn 0.0872 0.0000 -0.9962
vn 0.2588 0.0000 -0.9659
vn 0.4226 0.0000 -0.9063
vn 0.5736 0.0000 -0.8192
vn 0.7071 0.0000 -0.7071
vn 0.8191 0.0000 -0.5736
vn 0.9063 0.0000 -0.4226
vn 0.9659 0.0000 -0.2588
vn 0.9962 0.0000 -0.0872
vn 0.0871 0.0000 0.9962
vn 0.2588 0.0000 0.9659
vn 0.4226 0.0000 0.9063
vn 0.5736 0.0000 0.8192
vn 0.7071 0.0000 0.7071
vn 0.8191 0.0000 0.5736
vn 0.9063 0.0000 0.4226
vn 0.9659 0.0000 0.2588
vn 0.9962 0.0000 0.0872
vn -0.0871 0.0000 0.9962
vn -0.2588 0.0000 0.9659
vn -0.4226 0.0000 0.9063
vn -0.5736 0.0000 0.8192
vn -0.7071 0.0000 0.7071
vn -0.8192 0.0000 0.5736
vn -0.9063 0.0000 0.4226
vn -0.9659 0.0000 0.2588
vn -0.9962 0.0000 0.0872
vn 0.0000 0.0000 1.0000
vn -0.2589 0.0000 0.9659
vn -0.8191 0.0000 0.5736
vn -1.0000 0.0000 0.0000
vn -0.5736 0.0000 -0.8191
vn -0.2589 0.0000 -0.9659
vn -0.0871 0.0000 -0.9962
vn 0.0000 0.0000 -1.0000
vn 0.2589 0.0000 -0.9659
vn 0.0871 0.0000 -0.9962
vn 0.5736 0.0000 -0.8191
vn 0.8192 0.0000 -0.5736
vn 0.9962 0.0000 -0.0871
vn 1.0000 0.0000 0.0000
vn 0.8192 0.0000 0.5736
vn 0.9962 0.0000 0.0871
vn 0.2589 0.0000 0.9659
vn 0.0000 -1.0000 0.0000
usemtl None
s off
f 1//1 2//1 3//1
f 1//1 3//1 4//1
f 1//1 4//1 5//1
f 1//1 5//1 6//1
f 1//1 6//1 7//1
f 1//1 7//1 8//1
f 1//1 8//1 9//1
f 1//1 9//1 10//1
f 1//1 10//1 11//1
f 1//1 11//1 12//1
f 1//1 12//1 13//1
f 1//1 13//1 14//1
f 1//1 14//1 15//1
f 1//1 15//1 16//1
f 1//1 16//1 17//1
f 1//1 17//1 18//1
f 1//1 18//1 19//1
f 1//1 19//1 20//1
f 1//1 20//1 21//1
f 1//1 21//1 22//1
f 1//1 22//1 23//1
f 1//1 23//1 24//1
f 12//1 11//1 25//1
f 12//1 25//1 26//1
f 12//1 26//1 27//1
f 12//1 27//1 28//1
f 12//1 28//1 29//1
f 12//1 29//1 30//1
f 12//1 30//1 31//1
f 12//1 31//1 32//1
f 12//1 32//1 33//1
f 34//1 1//1 24//1
f 34//1 24//1 35//1
f 34//1 35//1 36//1
f 34//1 36//1 37//1
f 34//1 37//1 38//1
f 34//1 38//1 39//1
f 34//1 39//1 40//1
f 40//1 41//1 42//1
f 40//1 42//1 43//1
f 40//1 43//1 44//1
f 40//1 44//1 45//1
f 40//1 45//1 46//1
f 40//1 46//1 47//1
f 40//1 47//1 48//1
f 40//1 48//1 49//1
f 40//1 49//1 50//1
f 40//1 50//1 51//1
f 40//1 51//1 52//1
f 40//1 52//1 53//1
f 40//1 53//1 54//1
f 40//1 54//1 55//1
f 40//1 55//1 56//1
f 40//1 56//1 57//1
f 40//1 57//1 58//1
f 40//1 58//1 59//1
f 40//1 59//1 34//1
f 33//1 60//1 61//1
f 33//1 61//1 62//1
f 33//1 62//1 63//1
f 33//1 63//1 64//1
f 33//1 64//1 65//1
f 33//1 65//1 66//1
f 33//1 66//1 67//1
f 33//1 67//1 68//1
f 33//1 68//1 69//1
f 33//1 69//1 70//1
f 33//1 70//1 71//1
f 33//1 71//1 12//1
f 41//1 40//1 72//1
f 41//1 72//1 73//1
f 41//1 73//1 74//1
f 41//1 74//1 75//1
f 41//1 75//1 76//1
f 41//1 76//1 60//1
f 41//1 60//1 33//1
f 77//2 71//2 78//2
f 78//3 71//3 70//3
f 78//3 70//3 79//3
f 79//4 70//4 69//4
f 79//4 69//4 80//4
f 80//5 69//5 68//5
f 80//5 68//5 81//5
f 81//6 68//6 67//6
f 81//6 67//6 82//6
f 82//7 67//7 66//7
f 82//7 66//7 83//7
f 83//8 66//8 65//8
f 83//8 65//8 84//8
f 84//9 65//9 64//9
f 84//9 64//9 85//9
f 85//10 64//10 63//10
f 85//10 63//10 86//10
f 71//2 77//2 12//2
f 12//11 77//11 87//11
f 12//11 87//11 13//11
f 13//12 87//12 88//12
f 13//12 88//12 14//12
f 14//13 88//13 89//13
f 14//13 89//13 15//13
f 15//14 89//14 90//14
f 15//14 90//14 16//14
f 16//15 90//15 91//15
f 16//15 91//15 17//15
f 17//16 91//16 92//16
f 17//16 92//16 18//16
f 18//17 92//17 93//17
f 18//17 93//17 19//17
f 19//18 93//18 94//18
f 19//18 94//18 20//18
f 20//19 94//19 95//19
f 20//19 95//19 21//19
f 96//20 39//20 97//20
f 97//21 39//21 38//21
f 97//21 38//21 98//21
f 98//22 38//22 37//22
f 98//22 37//22 99//22
f 99//23 37//23 36//23
f 99//23 36//23 100//23
f 100//24 36//24 35//24
f 100//24 35//24 101//24
f 101//25 35//25 24//25
f 101//25 24//25 102//25
f 102//26 24//26 23//26
f 102//26 23//26 103//26
f 103//27 23//27 22//27
f 103//27 22//27 104//27
f 104//28 22//28 21//28
f 104//28 21//28 95//28
f 39//20 96//20 40//20
f 40//29 96//29 105//29
f 40//29 105//29 72//29
f 72//30 105//30 106//30
f 72//30 106//30 73//30
f 73//31 106//31 107//31
f 73//31 107//31 74//31
f 74//32 107//32 108//32
f 74//32 108//32 75//32
f 75//33 108//33 109//33
f 75//33 109//33 76//33
f 76//34 109//34 110//34
f 76//34 110//34 60//34
f 60//35 110//35 111//35
f 60//35 111//35 61//35
f 61//36 111//36 112//36
f 61//36 112//36 62//36
f 62//37 112//37 86//37
f 62//37 86//37 63//37
f 97//1 105//1 96//1
f 105//1 97//1 106//1
f 106//1 97//1 98//1
f 106//1 98//1 107//1
f 107//1 98//1 99//1
f 107//1 99//1 108//1
f 108//1 99//1 100//1
f 108//1 100//1 109//1
f 109//1 100//1 101//1
f 109//1 101//1 110//1
f 110//1 101//1 102//1
f 110//1 102//1 111//1
f 111//1 102//1 103//1
f 111//1 103//1 112//1
f 112//1 103//1 104//1
f 112//1 104//1 86//1
f 86//1 104//1 95//1
f 86//1 95//1 85//1
f 85//1 95//1 94//1
f 85//1 94//1 84//1
f 84//1 94//1 93//1
f 84//1 93//1 83//1
f 83//1 93//1 92//1
f 83//1 92//1 82//1
f 82//1 92//1 91//1
f 82//1 91//1 81//1
f 81//1 91//1 90//1
f 81//1 90//1 80//1
f 80//1 90//1 89//1
f 80//1 89//1 79//1
f 79//1 89//1 88//1
f 79//1 88//1 78//1
f 78//1 88//1 87//1
f 78//1 87//1 77//1
f 113//1 114//1 115//1
f 113//1 115//1 116//1
f 113//1 116//1 117//1
f 113//1 117//1 118//1
f 113//1 118//1 119//1
f 113//1 119//1 120//1
f 113//1 120//1 121//1
f 113//1 121//1 122//1
f 113//1 122//1 123//1
f 113//1 123//1 124//1
f 113//1 124//1 125//1
f 113//1 125//1 126//1
f 127//1 113//1 126//1
f 127//1 126//1 128//1
f 127//1 128//1 129//1
f 127//1 129//1 130//1
f 127//1 130//1 131//1
f 127//1 131//1 132//1
f 127//1 132//1 133//1
f 127//1 133//1 134//1
f 127//1 134//1 135//1
f 127//1 135//1 136//1
f 127//1 136//1 137//1
f 127//1 137//1 138//1
f 139//1 138//1 137//1
f 139//1 137//1 140//1
f 139//1 140//1 141//1
f 142//1 137//1 136//1
f 142//1 136//1 143//1
f 142//1 143//1 144//1
f 142//1 144//1 145//1
f 142//1 145//1 146//1
f 142//1 146//1 147//1
f 142//1 147//1 148//1
f 142//1 148//1 149//1
f 142//1 149//1 150//1
f 142//1 150//1 151//1
f 142//1 151//1 152//1
f 142//1 152//1 153//1
f 142//1 153//1 114//1
f 114//1 153//1 154//1
f 114//1 154//1 155//1
f 114//1 155//1 156//1
f 114//1 156//1 157//1
f 114//1 157//1 158//1
f 114//1 158//1 159//1
f 114//1 159//1 160//1
f 114//1 160//1 161//1
f 114//1 161//1 115//1
f 51//38 50//38 136//38
f 136//38 50//38 143//38
f 46//32 146//32 47//32
f 47//31 146//31 145//31
f 47//31 145//31 48//31
f 48//39 145//39 144//39
f 48//39 144//39 49//39
f 49//29 144//29 143//29
f 49//29 143//29 50//29
f 146//32 46//32 147//32
f 147//33 46//33 45//33
f 147//33 45//33 148//33
f 148//40 45//40 44//40
f 148//40 44//40 149//40
f 149//35 44//35 43//35
f 149//35 43//35 150//35
f 150//36 43//36 42//36
f 150//36 42//36 151//36
f 151//37 42//37 41//37
f 151//37 41//37 152//37
f 33//41 153//41 41//41
f 41//41 153//41 152//41
f 29//7 156//7 30//7
f 30//8 156//8 155//8
f 30//8 155//8 31//8
f 31//9 155//9 154//9
f 31//9 154//9 32//9
f 32//10 154//10 153//10
f 32//10 153//10 33//10
f 156//7 29//7 157//7
f 157//6 29//6 28//6
f 157//6 28//6 158//6
f 158//42 28//42 27//42
f 158//5 27//5 159//5
f 159//4 27//4 26//4
f 159//4 26//4 160//4
f 160//43 26//43 25//43
f 160//43 25//43 161//43
f 161//44 25//44 11//44
f 161//2 11//2 115//2
f 11//45 10//45 115//45
f 115//45 10//45 116//45
f 6//14 119//14 7//14
f 7//13 119//13 118//13
f 7//13 118//13 8//13
f 8//46 118//46 117//46
f 8//46 117//46 9//46
f 9//47 117//47 116//47
f 9//11 116//11 10//11
f 119//48 6//48 120//48
f 120//15 6//15 5//15
f 120//15 5//15 121//15
f 121//49 5//49 4//49
f 121//49 4//49 122//49
f 122//17 4//17 3//17
f 122//17 3//17 123//17
f 123//18 3//18 2//18
f 123//18 2//18 124//18
f 124//50 2//50 1//50
f 124//50 1//50 125//50
f 34//51 126//51 1//51
f 1//51 126//51 125//51
f 56//52 130//52 57//52
f 57//26 130//26 129//26
f 57//26 129//26 58//26
f 58//27 129//27 128//27
f 58//27 128//27 59//27
f 59//53 128//53 126//53
f 59//53 126//53 34//53
f 130//52 56//52 131//52
f 131//24 56//24 55//24
f 131//24 55//24 132//24
f 132//23 55//23 54//23
f 132//23 54//23 133//23
f 133//22 54//22 53//22
f 133//22 53//22 134//22
f 134//54 53//54 52//54
f 134//54 52//54 135//54
f 135//20 52//20 51//20
f 135//20 51//20 136//20
f 162//55 163//55 164//55
f 162//55 164//55 165//55
f 162//55 165//55 166//55
f 162//55 166//55 167//55
f 167//55 166//55 168//55
f 168//55 166//55 169//55
f 168//55 169//55 170//55
f 163//41 162//41 141//41
f 141//41 162//41 139//41
f 141//45 140//45 163//45
f 163//45 140//45 164//45
f 140//45 137//45 164//45
f 164//45 137//45 165//45
f 137//45 142//45 165//45
f 165//45 142//45 166//45
f 142//51 114//51 166//51
f 166//51 114//51 169//51
f 169//38 114//38 170//38
f 170//38 114//38 113//38
f 113//41 127//41 170//41
f 170//41 127//41 168//41
f 138//38 167//38 127//38
f 127//38 167//38 168//38
f 139//38 162//38 138//38
f 138//38 162//38 167//38
