# Blender v3.0.1 OBJ File: ''
# www.blender.org
mtllib countertop.mtl
o Countertop
v 72.000000 34.000000 48.000000
v 76.030380 34.000000 19.652700
v 76.000000 34.000000 20.000000
v 76.000000 34.000000 42.000000
v 76.030380 34.000000 42.347301
v 76.120613 34.000000 42.684040
v 76.267952 34.000000 43.000000
v 76.467911 34.000000 43.285580
v 76.714417 34.000000 43.532089
v 77.000000 34.000000 43.732052
v 77.315964 34.000000 43.879379
v 77.652702 34.000000 43.969620
v 78.000000 34.000000 44.000000
v 92.000000 34.000000 44.000000
v 98.000000 34.000000 48.000000
v 72.000000 34.000000 2.000000
v 0.000000 34.000000 2.000000
v 0.000000 34.000000 -24.000000
v 72.000000 34.000000 -24.000000
v 78.000000 34.000000 18.000000
v 77.652702 34.000000 18.030380
v 77.315964 34.000000 18.120621
v 77.000000 34.000000 18.267950
v 76.714417 34.000000 18.467911
v 76.467911 34.000000 18.714420
v 76.267952 34.000000 19.000000
v 76.120613 34.000000 19.315960
v 98.000000 34.000000 -24.000000
v 94.000000 34.000000 42.000000
v 94.000000 34.000000 20.000000
v 93.969612 34.000000 19.652700
v 93.879387 34.000000 19.315960
v 93.732063 34.000000 19.000000
v 93.532089 34.000000 18.714420
v 93.285583 34.000000 18.467911
v 93.000000 34.000000 18.267950
v 92.684036 34.000000 18.120621
v 92.347298 34.000000 18.030380
v 92.000000 34.000000 18.000000
v 92.347298 34.000000 43.969620
v 92.684036 34.000000 43.879379
v 93.000000 34.000000 43.732052
v 93.285583 34.000000 43.532089
v 93.532089 34.000000 43.285580
v 93.732063 34.000000 43.000000
v 93.879387 34.000000 42.684040
v 93.969612 34.000000 42.347301
v 72.000000 36.000000 48.000000
v 98.000000 36.000000 48.000000
v 92.000000 36.000000 44.000000
v 78.000000 36.000000 44.000000
v 77.652702 36.000000 43.969620
v 77.315964 36.000000 43.879379
v 77.000000 36.000000 43.732052
v 76.714417 36.000000 43.532089
v 76.467911 36.000000 43.285580
v 76.267952 36.000000 43.000000
v 76.120613 36.000000 42.684040
v 76.030380 36.000000 42.347301
v 76.000000 36.000000 42.000000
v 76.000000 36.000000 20.000000
v 76.030380 36.000000 19.652700
v 72.000000 36.000000 2.000000
v 76.120613 36.000000 19.315960
v 76.267952 36.000000 19.000000
v 76.467911 36.000000 18.714420
v 76.714417 36.000000 18.467911
v 77.000000 36.000000 18.267950
v 77.315964 36.000000 18.120621
v 77.652702 36.000000 18.030380
v 78.000000 36.000000 18.000000
v 72.000000 36.000000 -24.000000
v 0.000000 36.000000 -24.000000
v 0.000000 36.000000 2.000000
v 98.000000 36.000000 -24.000000
v 92.000000 36.000000 18.000000
v 92.347298 36.000000 18.030380
v 92.684036 36.000000 18.120621
v 93.000000 36.000000 18.267950
v 93.285583 36.000000 18.467911
v 93.532089 36.000000 18.714420
v 93.732063 36.000000 19.000000
v 93.879387 36.000000 19.315960
v 93.969612 36.000000 19.652700
v 94.000000 36.000000 20.000000
v 94.000000 36.000000 42.000000
v 93.969612 36.000000 42.347301
v 93.879387 36.000000 42.684040
v 93.732063 36.000000 43.000000
v 93.532089 36.000000 43.285580
v 93.285583 36.000000 43.532089
v 93.000000 36.000000 43.732052
v 92.684036 36.000000 43.879379
v 92.347298 36.000000 43.969620
vn 0.0000 -1.0000 0.0000
vn 0.0000 1.0000 0.0000
vn 0.0000 0.0000 1.0000
vn -0.5736 0.0000 0.8192
vn -0.4226 0.0000 0.9063
vn -0.2589 0.0000 0.9659
vn -0.0871 0.0000 0.9962
vn -0.7071 0.0000 0.7071
vn -0.8191 0.0000 0.5736
vn -0.9063 0.0000 0.4226
vn -0.9659 0.0000 0.2588
vn -0.9962 0.0000 0.0872
vn -1.0000 0.0000 0.0000
vn -0.8191 0.0000 -0.5736
vn -0.9063 0.0000 -0.4226
vn -0.9659 0.0000 -0.2588
vn -0.9962 0.0000 -0.0872
vn -0.7071 0.0000 -0.7071
vn -0.5736 0.0000 -0.8192
vn -0.4226 0.0000 -0.9063
vn -0.2589 0.0000 -0.9659
vn -0.0871 0.0000 -0.9962
vn 0.0000 0.0000 -1.0000
vn 0.5736 0.0000 -0.8192
vn 0.4226 0.0000 -0.9063
vn 0.2589 0.0000 -0.9659
vn 0.0871 0.0000 -0.9962
vn 0.7071 0.0000 -0.7071
vn 0.8192 0.0000 -0.5736
vn 0.9063 0.0000 -0.4226
vn 0.9659 0.0000 -0.2588
vn 0.9962 0.0000 -0.0871
vn 1.0000 0.0000 0.0000
vn 0.8192 0.0000 0.5736
vn 0.9063 0.0000 0.4226
vn 0.9659 0.0000 0.2588
vn 0.9962 0.0000 0.0871
vn 0.7071 0.0000 0.7071
vn 0.5736 0.0000 0.8192
vn 0.4226 0.0000 0.9063
vn 0.2589 0.0000 0.9659
vn 0.0871 0.0000 0.9962
usemtl None
s off
f 1//1 2//1 3//1
f 1//1 3//1 4//1
f 1//1 4//1 5//1
f 1//1 5//1 6//1
f 1//1 6//1 7//1
f 1//1 7//1 8//1
f 1//1 8//1 9//1
f 1//1 9//1 10//1
f 1//1 10//1 11//1
f 1//1 11//1 12//1
f 1//1 12//1 13//1
f 1//1 13//1 14//1
f 1//1 14//1 15//1
f 16//1 17//1 18//1
f 16//1 18//1 19//1
f 16//1 19//1 20//1
f 16//1 20//1 21//1
f 16//1 21//1 22//1
f 16//1 22//1 23//1
f 16//1 23//1 24//1
f 16//1 24//1 25//1
f 16//1 25//1 26//1
f 16//1 26//1 27//1
f 16//1 27//1 2//1
f 16//1 2//1 1//1
f 28//1 15//1 29//1
f 28//1 29//1 30//1
f 28//1 30//1 31//1
f 28//1 31//1 32//1
f 28//1 32//1 33//1
f 28//1 33//1 34//1
f 28//1 34//1 35//1
f 28//1 35//1 36//1
f 28//1 36//1 37//1
f 28//1 37//1 38//1
f 28//1 38//1 39//1
f 28//1 39//1 20//1
f 28//1 20//1 19//1
f 15//1 14//1 40//1
f 15//1 40//1 41//1
f 15//1 41//1 42//1
f 15//1 42//1 43//1
f 15//1 43//1 44//1
f 15//1 44//1 45//1
f 15//1 45//1 46//1
f 15//1 46//1 47//1
f 15//1 47//1 29//1
f 48//2 49//2 50//2
f 48//2 50//2 51//2
f 48//2 51//2 52//2
f 48//2 52//2 53//2
f 48//2 53//2 54//2
f 48//2 54//2 55//2
f 48//2 55//2 56//2
f 48//2 56//2 57//2
f 48//2 57//2 58//2
f 48//2 58//2 59//2
f 48//2 59//2 60//2
f 48//2 60//2 61//2
f 48//2 61//2 62//2
f 63//2 48//2 62//2
f 63//2 62//2 64//2
f 63//2 64//2 65//2
f 63//2 65//2 66//2
f 63//2 66//2 67//2
f 63//2 67//2 68//2
f 63//2 68//2 69//2
f 63//2 69//2 70//2
f 63//2 70//2 71//2
f 63//2 71//2 72//2
f 63//2 72//2 73//2
f 63//2 73//2 74//2
f 75//2 72//2 71//2
f 75//2 71//2 76//2
f 75//2 76//2 77//2
f 75//2 77//2 78//2
f 75//2 78//2 79//2
f 75//2 79//2 80//2
f 75//2 80//2 81//2
f 75//2 81//2 82//2
f 75//2 82//2 83//2
f 75//2 83//2 84//2
f 75//2 84//2 85//2
f 75//2 85//2 86//2
f 75//2 86//2 49//2
f 49//2 86//2 87//2
f 49//2 87//2 88//2
f 49//2 88//2 89//2
f 49//2 89//2 90//2
f 49//2 90//2 91//2
f 49//2 91//2 92//2
f 49//2 92//2 93//2
f 49//2 93//2 94//2
f 49//2 94//2 50//2
f 20//3 39//3 71//3
f 71//3 39//3 76//3
f 35//4 79//4 36//4
f 36//5 79//5 78//5
f 36//5 78//5 37//5
f 37//6 78//6 77//6
f 37//6 77//6 38//6
f 38//7 77//7 76//7
f 38//7 76//7 39//7
f 79//4 35//4 80//4
f 80//8 35//8 34//8
f 80//8 34//8 81//8
f 81//9 34//9 33//9
f 81//9 33//9 82//9
f 82//10 33//10 32//10
f 82//10 32//10 83//10
f 83//11 32//11 31//11
f 83//11 31//11 84//11
f 84//12 31//12 30//12
f 84//12 30//12 85//12
f 29//13 86//13 30//13
f 30//13 86//13 85//13
f 44//14 89//14 45//14
f 45//15 89//15 88//15
f 45//15 88//15 46//15
f 46//16 88//16 87//16
f 46//16 87//16 47//16
f 47//17 87//17 86//17
f 47//17 86//17 29//17
f 89//14 44//14 90//14
f 90//18 44//18 43//18
f 90//18 43//18 91//18
f 91//19 43//19 42//19
f 91//19 42//19 92//19
f 92//20 42//20 41//20
f 92//20 41//20 93//20
f 93//21 41//21 40//21
f 93//21 40//21 94//21
f 94//22 40//22 14//22
f 94//22 14//22 50//22
f 14//23 13//23 50//23
f 50//23 13//23 51//23
f 9//24 54//24 10//24
f 10//25 54//25 53//25
f 10//25 53//25 11//25
f 11//26 53//26 52//26
f 11//26 52//26 12//26
f 12//27 52//27 51//27
f 12//27 51//27 13//27
f 54//24 9//24 55//24
f 55//28 9//28 8//28
f 55//28 8//28 56//28
f 56//29 8//29 7//29
f 56//29 7//29 57//29
f 57//30 7//30 6//30
f 57//30 6//30 58//30
f 58//31 6//31 5//31
f 58//31 5//31 59//31
f 59//32 5//32 4//32
f 59//32 4//32 60//32
f 3//33 61//33 4//33
f 4//33 61//33 60//33
f 25//34 65//34 26//34
f 26//35 65//35 64//35
f 26//35 64//35 27//35
f 27//36 64//36 62//36
f 27//36 62//36 2//36
f 2//37 62//37 61//37
f 2//37 61//37 3//37
f 65//34 25//34 66//34
f 66//38 25//38 24//38
f 66//38 24//38 67//38
f 67//39 24//39 23//39
f 67//39 23//39 68//39
f 68//40 23//40 22//40
f 68//40 22//40 69//40
f 69//41 22//41 21//41
f 69//41 21//41 70//41
f 70//42 21//42 20//42
f 70//42 20//42 71//42
f 73//23 72//23 18//23
f 18//23 72//23 19//23
f 72//23 75//23 19//23
f 19//23 75//23 28//23
f 49//33 15//33 75//33
f 75//33 15//33 28//33
f 49//3 48//3 15//3
f 15//3 48//3 1//3
f 63//13 16//13 48//13
f 48//13 16//13 1//13
f 63//3 74//3 16//3
f 16//3 74//3 17//3
f 73//13 18//13 74//13
f 74//13 18//13 17//13
